<?xml version="1.0" standalone="no"?>
<!DOCTYPE svg PUBLIC "-//W3C//DTD SVG 20010904//EN"
 "http://www.w3.org/TR/2001/REC-SVG-20010904/DTD/svg10.dtd">
<svg version="1.0" xmlns="http://www.w3.org/2000/svg"
 width="653.000000pt" height="653.000000pt" viewBox="0 0 653.000000 653.000000"
 preserveAspectRatio="xMidYMid meet">
<metadata>
Created by potrace 1.11, written by Peter Selinger 2001-2013
</metadata>
<g transform="translate(0.000000,653.000000) scale(0.100000,-0.100000)"
fill="#000000" stroke="none">
<path d="M3127 4864 c-1 -1 -47 -4 -102 -5 -55 -2 -120 -6 -145 -10 -25 -4
-92 -15 -150 -24 -461 -72 -961 -278 -1354 -557 -156 -111 -270 -210 -421
-362 -422 -423 -698 -914 -840 -1487 -34 -139 -36 -150 -55 -279 -6 -41 -13
-88 -16 -105 -2 -16 -7 -103 -11 -192 l-6 -163 74 0 c710 -2 1943 0 1946 4 6
5 10 42 17 131 23 310 106 589 247 830 355 607 988 797 1508 454 292 -192 531
-566 620 -967 26 -116 51 -310 51 -395 l0 -68 998 3 997 3 0 105 c2 457 -161
1032 -416 1472 -89 153 -248 378 -354 498 -44 51 -264 270 -310 311 -366 317
-769 538 -1235 676 -264 78 -468 112 -715 119 -104 3 -221 6 -258 8 -37 1 -69
1 -70 0z m31 -95 c638 -154 992 -366 1136 -680 111 -242 61 -482 -179 -865
-124 -199 -105 -189 -216 -110 -109 79 -220 134 -344 172 -49 15 -92 29 -94
30 -2 2 -5 106 -7 231 -4 293 -10 370 -34 484 -40 192 -70 286 -136 428 -56
120 -116 203 -201 280 -37 33 -64 61 -60 61 4 0 65 -14 135 -31z m-190 -47
c85 -83 153 -175 199 -266 78 -155 142 -405 158 -617 11 -143 9 -477 -3 -496
-4 -7 -52 -14 -120 -18 -105 -7 -112 -6 -113 11 -4 106 -71 238 -167 326 -172
161 -486 275 -927 338 -44 6 -91 13 -105 15 -33 5 -214 25 -265 29 -32 2 -54
-5 -115 -41 -79 -47 -192 -128 -276 -200 l-51 -43 -142 0 c-77 0 -141 4 -141
9 0 12 223 225 325 311 414 346 925 580 1495 685 181 34 170 36 248 -43z
m1077 -8 c897 -230 1653 -838 2061 -1654 68 -136 168 -379 160 -387 -3 -3 -69
26 -148 65 -186 91 -365 148 -528 167 -103 12 -352 6 -445 -10 -283 -50 -559
-210 -690 -400 -21 -30 -41 -55 -44 -55 -3 0 -34 55 -68 123 -71 140 -135 239
-223 345 l-62 74 27 36 c15 20 59 85 98 144 82 126 63 128 190 -22 62 -73 156
-205 212 -297 1 -3 257 125 263 131 4 5 -94 136 -289 387 l-168 216 14 53 c29
111 36 253 16 327 -5 18 -6 33 -3 33 4 -1 86 -104 182 -231 96 -126 254 -334
351 -461 l175 -230 115 -4 c166 -5 308 -13 359 -20 43 -6 174 -42 214 -59 28
-12 19 7 -75 160 -146 237 -294 419 -507 627 -301 292 -590 494 -1016 713 -99
51 -229 114 -288 141 -60 26 -108 50 -108 53 0 12 84 61 105 61 11 0 66 -12
120 -26z m-2770 -1090 c72 -41 174 -100 227 -130 l96 -54 124 39 c68 22 204
67 302 101 l179 60 261 -172 c144 -95 282 -186 308 -203 26 -16 48 -32 48 -35
0 -3 -40 -30 -88 -60 -102 -64 -117 -76 -239 -194 -86 -83 -94 -88 -125 -83
-256 46 -250 45 -428 53 -85 3 -156 7 -158 9 -1 1 38 62 88 135 49 74 88 136
85 138 -2 2 -90 -28 -195 -68 l-192 -73 -71 34 c-38 19 -136 66 -216 106
l-146 72 -33 -37 c-102 -115 -200 -331 -238 -525 l-17 -87 -56 -32 c-186 -104
-416 -304 -605 -526 -43 -51 -80 -91 -82 -89 -7 7 36 271 61 375 103 429 284
811 557 1177 l109 145 157 0 157 0 130 -76z m1052 -792 l33 -7 -45 -64 c-24
-35 -59 -91 -76 -125 -17 -33 -43 -80 -56 -103 l-25 -43 -169 0 c-93 0 -169
-1 -169 -3 0 -2 -12 -37 -26 -78 -113 -322 -152 -439 -146 -438 4 1 89 1 189
0 l183 -1 -5 -42 c-10 -80 -14 -123 -14 -161 l-1 -38 -950 1 c-522 1 -952 5
-955 9 -2 5 30 57 71 117 203 291 387 481 599 620 206 134 632 309 830 340 22
3 43 8 46 10 3 2 41 6 85 10 43 4 80 8 82 9 7 6 489 -6 519 -13z m3368 -32
c241 -44 458 -147 569 -270 99 -110 129 -265 74 -383 -36 -77 -150 -190 -248
-247 -93 -54 -229 -103 -362 -131 -116 -23 -355 -32 -497 -18 -154 16 -375 87
-497 160 -75 45 -182 153 -218 220 -27 48 -30 63 -30 149 -1 89 1 99 33 158
93 171 342 315 636 366 122 21 416 19 540 -4z"/>
<path d="M3564 4375 c23 -57 59 -183 82 -290 24 -107 27 -145 30 -345 2 -124
0 -246 -5 -272 -6 -37 -5 -48 6 -52 8 -3 80 -8 161 -12 136 -5 149 -4 179 15
148 94 44 360 -320 817 -57 71 -112 136 -122 144 -17 14 -18 13 -11 -5z"/>
<path d="M2585 4495 c-207 -60 -478 -169 -517 -208 -36 -36 5 -81 129 -141
262 -128 706 -204 844 -145 l49 21 0 53 c0 44 -6 62 -41 115 -46 71 -223 254
-284 293 -56 36 -89 38 -180 12z"/>
<path d="M1375 2442 c-242 -114 -374 -219 -501 -399 l-43 -63 37 -1 c142 -4
419 -5 430 -1 13 5 34 48 57 117 7 22 38 112 69 200 31 88 56 166 56 173 0 19
-18 14 -105 -26z"/>
<path d="M5259 2566 c-2 -2 -33 -7 -69 -10 -36 -4 -102 -16 -148 -27 -290 -72
-413 -199 -317 -330 132 -178 648 -257 1066 -164 190 42 334 128 360 215 38
126 -164 255 -476 305 -43 7 -410 17 -416 11z"/>
<path d="M3210 2347 c-112 -28 -225 -182 -279 -377 -19 -72 -41 -214 -41 -272
l0 -28 385 0 385 0 0 31 c0 64 -32 246 -56 319 -48 143 -143 273 -229 311 -49
21 -118 28 -165 16z"/>
</g>
</svg>
